<svg width="531" height="323" viewBox="0 0 531 323" fill="none" xmlns="http://www.w3.org/2000/svg">
<g clip-path="url(#clip0)">
<path d="M256.903 285.577C142.612 278.608 6.31506 207.654 13.2542 134.595C20.1933 61.536 152.199 -6.47571 266.49 0.49298C380.781 7.46167 446.57 143.996 439.631 217.055C432.692 290.114 371.194 292.545 256.903 285.577Z" fill="#F2F2F2"/>
<path d="M266.488 297.311C398.252 297.311 505.067 292.068 505.067 285.6C505.067 279.132 398.252 273.889 266.488 273.889C134.725 273.889 27.9097 279.132 27.9097 285.6C27.9097 292.068 134.725 297.311 266.488 297.311Z" fill="#3F3D56"/>
<path opacity="0.1" d="M266.489 293.156C378.722 293.156 469.705 289.688 469.705 285.411C469.705 281.134 378.722 277.667 266.489 277.667C154.255 277.667 63.2722 281.134 63.2722 285.411C63.2722 289.688 154.255 293.156 266.489 293.156Z" fill="black"/>
<path d="M100.049 323C155.305 323 200.098 319.871 200.098 316.011C200.098 312.151 155.305 309.022 100.049 309.022C44.7936 309.022 0 312.151 0 316.011C0 319.871 44.7936 323 100.049 323Z" fill="#3F3D56"/>
<path opacity="0.1" d="M100.049 320.52C147.115 320.52 185.269 318.451 185.269 315.898C185.269 313.346 147.115 311.277 100.049 311.277C52.9837 311.277 14.8295 313.346 14.8295 315.898C14.8295 318.451 52.9837 320.52 100.049 320.52Z" fill="black"/>
<path d="M447.073 61.2H92.5051V284.089H447.073V61.2Z" fill="#3F3D56"/>
<path d="M265.755 91.6599H178.284C178.144 91.6601 178.006 91.6383 177.877 91.5957C177.748 91.553 177.63 91.4904 177.532 91.4114C177.433 91.3324 177.354 91.2386 177.301 91.1352C177.247 91.0319 177.22 90.9212 177.22 90.8093C177.22 90.6975 177.247 90.5868 177.301 90.4834C177.354 90.3801 177.433 90.2863 177.532 90.2073C177.63 90.1283 177.748 90.0657 177.877 90.023C178.006 89.9804 178.144 89.9586 178.284 89.9588H265.755C266.036 89.9593 266.306 90.0491 266.504 90.2086C266.703 90.368 266.815 90.5841 266.815 90.8093C266.815 91.0346 266.703 91.2507 266.504 91.4101C266.306 91.5696 266.036 91.6594 265.755 91.6599Z" fill="#F2F2F2"/>
<path d="M361.507 101.016H223.93C223.649 101.016 223.379 100.926 223.18 100.767C222.981 100.607 222.869 100.391 222.869 100.165C222.869 99.9397 222.981 99.7234 223.18 99.5639C223.379 99.4044 223.649 99.3148 223.93 99.3148H361.507C361.646 99.3148 361.784 99.3368 361.913 99.3795C362.042 99.4222 362.159 99.4849 362.257 99.5639C362.356 99.6429 362.434 99.7366 362.488 99.8398C362.541 99.943 362.568 100.054 362.568 100.165C362.568 100.277 362.541 100.388 362.488 100.491C362.434 100.594 362.356 100.688 362.257 100.767C362.159 100.846 362.042 100.908 361.913 100.951C361.784 100.994 361.646 101.016 361.507 101.016Z" fill="#F2F2F2"/>
<path d="M266.18 110.372H178.708C178.427 110.372 178.157 110.282 177.958 110.123C177.759 109.963 177.647 109.747 177.647 109.521C177.647 109.296 177.759 109.079 177.958 108.92C178.157 108.76 178.427 108.671 178.708 108.671H266.18C266.461 108.671 266.731 108.76 266.93 108.92C267.13 109.079 267.241 109.296 267.241 109.521C267.241 109.747 267.13 109.963 266.93 110.123C266.731 110.282 266.461 110.372 266.18 110.372Z" fill="#F2F2F2"/>
<path d="M361.507 110.542H274.035C273.754 110.542 273.484 110.452 273.285 110.293C273.086 110.133 272.974 109.917 272.974 109.691C272.974 109.466 273.086 109.249 273.285 109.09C273.484 108.93 273.754 108.841 274.035 108.841H361.507C361.788 108.841 362.058 108.93 362.257 109.09C362.457 109.249 362.568 109.466 362.568 109.691C362.568 109.917 362.457 110.133 362.257 110.293C362.058 110.452 361.788 110.542 361.507 110.542Z" fill="#F2F2F2"/>
<path d="M266.392 119.728H178.921C178.639 119.728 178.369 119.638 178.17 119.479C177.971 119.319 177.859 119.103 177.859 118.877C177.859 118.652 177.971 118.435 178.17 118.276C178.369 118.116 178.639 118.027 178.921 118.027H266.392C266.674 118.027 266.944 118.116 267.143 118.276C267.342 118.435 267.454 118.652 267.454 118.877C267.454 119.103 267.342 119.319 267.143 119.479C266.944 119.638 266.674 119.728 266.392 119.728Z" fill="#F2F2F2"/>
<path d="M266.604 129.084H179.133C178.851 129.084 178.581 128.994 178.382 128.835C178.183 128.675 178.071 128.459 178.071 128.233C178.071 128.008 178.183 127.791 178.382 127.632C178.581 127.472 178.851 127.383 179.133 127.383H266.604C266.886 127.383 267.156 127.472 267.355 127.632C267.554 127.791 267.666 128.008 267.666 128.233C267.666 128.459 267.554 128.675 267.355 128.835C267.156 128.994 266.886 129.084 266.604 129.084Z" fill="#F2F2F2"/>
<path d="M306.306 91.83H281.254C280.972 91.83 280.702 91.7404 280.503 91.5809C280.304 91.4214 280.192 91.205 280.192 90.9795C280.192 90.7539 280.304 90.5376 280.503 90.3781C280.702 90.2185 280.972 90.1289 281.254 90.1289H306.306C306.588 90.1289 306.858 90.2185 307.057 90.3781C307.256 90.5376 307.368 90.7539 307.368 90.9795C307.368 91.205 307.256 91.4214 307.057 91.5809C306.858 91.7404 306.588 91.83 306.306 91.83Z" fill="#F2F2F2"/>
<path d="M306.306 119.728H281.254C280.972 119.728 280.702 119.638 280.503 119.479C280.304 119.319 280.192 119.103 280.192 118.877C280.192 118.652 280.304 118.435 280.503 118.276C280.702 118.116 280.972 118.027 281.254 118.027H306.306C306.588 118.027 306.858 118.116 307.057 118.276C307.256 118.435 307.368 118.652 307.368 118.877C307.368 119.103 307.256 119.319 307.057 119.479C306.858 119.638 306.588 119.728 306.306 119.728Z" fill="#F2F2F2"/>
<path d="M306.306 128.914H281.254C281.114 128.914 280.976 128.892 280.847 128.849C280.718 128.807 280.601 128.744 280.502 128.665C280.403 128.586 280.325 128.492 280.271 128.389C280.218 128.286 280.19 128.175 280.19 128.063C280.19 127.951 280.218 127.84 280.271 127.737C280.325 127.634 280.403 127.54 280.502 127.461C280.601 127.382 280.718 127.319 280.847 127.277C280.976 127.234 281.114 127.212 281.254 127.212H306.306C306.446 127.212 306.584 127.234 306.713 127.277C306.842 127.319 306.96 127.382 307.058 127.461C307.157 127.54 307.236 127.634 307.289 127.737C307.343 127.84 307.37 127.951 307.37 128.063C307.37 128.175 307.343 128.286 307.289 128.389C307.236 128.492 307.157 128.586 307.058 128.665C306.96 128.744 306.842 128.807 306.713 128.849C306.584 128.892 306.446 128.914 306.306 128.914Z" fill="#F2F2F2"/>
<path d="M348.344 128.914H323.291C323.01 128.913 322.741 128.823 322.542 128.664C322.343 128.504 322.232 128.288 322.232 128.063C322.232 127.838 322.343 127.622 322.542 127.462C322.741 127.303 323.01 127.213 323.291 127.212H348.344C348.483 127.212 348.622 127.234 348.751 127.277C348.88 127.319 348.997 127.382 349.096 127.461C349.195 127.54 349.273 127.634 349.326 127.737C349.38 127.84 349.407 127.951 349.407 128.063C349.407 128.175 349.38 128.286 349.326 128.389C349.273 128.492 349.195 128.586 349.096 128.665C348.997 128.744 348.88 128.807 348.751 128.849C348.622 128.892 348.483 128.914 348.344 128.914Z" fill="#F2F2F2"/>
<path d="M203.124 101.016H178.071C177.79 101.016 177.52 100.926 177.321 100.767C177.122 100.607 177.01 100.391 177.01 100.165C177.01 99.9397 177.122 99.7234 177.321 99.5639C177.52 99.4044 177.79 99.3148 178.071 99.3148H203.124C203.405 99.3148 203.675 99.4044 203.875 99.5639C204.074 99.7234 204.185 99.9397 204.185 100.165C204.185 100.391 204.074 100.607 203.875 100.767C203.675 100.926 203.405 101.016 203.124 101.016Z" fill="#F2F2F2"/>
<path d="M265.861 229.447H178.39C178.108 229.447 177.838 229.358 177.639 229.198C177.44 229.039 177.328 228.822 177.328 228.597C177.328 228.371 177.44 228.155 177.639 227.995C177.838 227.836 178.108 227.746 178.39 227.746H265.861C266.143 227.746 266.413 227.836 266.612 227.995C266.811 228.155 266.923 228.371 266.923 228.597C266.923 228.822 266.811 229.039 266.612 229.198C266.413 229.358 266.143 229.447 265.861 229.447Z" fill="#F2F2F2"/>
<path d="M265.437 248.159H177.965C177.684 248.159 177.414 248.07 177.215 247.91C177.015 247.751 176.904 247.534 176.904 247.309C176.904 247.083 177.015 246.867 177.215 246.707C177.414 246.548 177.684 246.458 177.965 246.458H265.437C265.718 246.458 265.988 246.548 266.187 246.707C266.386 246.867 266.498 247.083 266.498 247.309C266.498 247.534 266.386 247.751 266.187 247.91C265.988 248.07 265.718 248.159 265.437 248.159Z" fill="#F2F2F2"/>
<path d="M265.649 257.515H178.177C178.038 257.515 177.9 257.494 177.771 257.451C177.642 257.408 177.524 257.346 177.425 257.267C177.327 257.188 177.248 257.094 177.195 256.991C177.141 256.887 177.114 256.776 177.114 256.665C177.114 256.553 177.141 256.442 177.195 256.339C177.248 256.235 177.327 256.142 177.425 256.063C177.524 255.984 177.642 255.921 177.771 255.878C177.9 255.836 178.038 255.814 178.177 255.814H265.649C265.789 255.814 265.927 255.836 266.056 255.878C266.185 255.921 266.302 255.984 266.401 256.063C266.5 256.142 266.578 256.235 266.632 256.339C266.685 256.442 266.713 256.553 266.713 256.665C266.713 256.776 266.685 256.887 266.632 256.991C266.578 257.094 266.5 257.188 266.401 257.267C266.302 257.346 266.185 257.408 266.056 257.451C265.927 257.494 265.789 257.515 265.649 257.515Z" fill="#F2F2F2"/>
<path d="M303.016 248.329H277.963C277.681 248.329 277.411 248.24 277.212 248.08C277.013 247.921 276.901 247.704 276.901 247.479C276.901 247.253 277.013 247.037 277.212 246.877C277.411 246.718 277.681 246.628 277.963 246.628H303.016C303.297 246.628 303.567 246.718 303.766 246.877C303.965 247.037 304.077 247.253 304.077 247.479C304.077 247.704 303.965 247.921 303.766 248.08C303.567 248.24 303.297 248.329 303.016 248.329Z" fill="#F2F2F2"/>
<path d="M303.016 257.515H277.963C277.681 257.515 277.411 257.426 277.212 257.266C277.013 257.107 276.901 256.89 276.901 256.665C276.901 256.439 277.013 256.223 277.212 256.063C277.411 255.904 277.681 255.814 277.963 255.814H303.016C303.297 255.814 303.567 255.904 303.766 256.063C303.965 256.223 304.077 256.439 304.077 256.665C304.077 256.89 303.965 257.107 303.766 257.266C303.567 257.426 303.297 257.515 303.016 257.515Z" fill="#F2F2F2"/>
<path d="M345.053 248.329H320C319.719 248.329 319.449 248.24 319.25 248.08C319.051 247.921 318.939 247.704 318.939 247.479C318.939 247.253 319.051 247.037 319.25 246.877C319.449 246.718 319.719 246.628 320 246.628H345.053C345.334 246.628 345.604 246.718 345.804 246.877C346.003 247.037 346.114 247.253 346.114 247.479C346.114 247.704 346.003 247.921 345.804 248.08C345.604 248.24 345.334 248.329 345.053 248.329Z" fill="#F2F2F2"/>
<path d="M361.613 238.803H224.036C223.755 238.803 223.485 238.714 223.286 238.554C223.087 238.395 222.975 238.178 222.975 237.953C222.975 237.727 223.087 237.511 223.286 237.351C223.485 237.192 223.755 237.102 224.036 237.102H361.613C361.895 237.102 362.165 237.192 362.364 237.351C362.563 237.511 362.675 237.727 362.675 237.953C362.675 238.178 362.563 238.395 362.364 238.554C362.165 238.714 361.895 238.803 361.613 238.803Z" fill="#F2F2F2"/>
<path d="M203.23 238.803H178.178C177.896 238.803 177.626 238.714 177.427 238.554C177.228 238.395 177.116 238.178 177.116 237.953C177.116 237.727 177.228 237.511 177.427 237.351C177.626 237.192 177.896 237.102 178.178 237.102H203.23C203.512 237.102 203.782 237.192 203.981 237.351C204.18 237.511 204.292 237.727 204.292 237.953C204.292 238.178 204.18 238.395 203.981 238.554C203.782 238.714 203.512 238.803 203.23 238.803Z" fill="#F2F2F2"/>
<path d="M361.613 267.041H224.036C223.897 267.041 223.759 267.02 223.629 266.977C223.5 266.934 223.383 266.872 223.284 266.793C223.185 266.714 223.107 266.62 223.054 266.517C223 266.413 222.973 266.303 222.973 266.191C222.973 266.079 223 265.968 223.054 265.865C223.107 265.761 223.185 265.668 223.284 265.589C223.383 265.51 223.5 265.447 223.629 265.404C223.759 265.362 223.897 265.34 224.036 265.34H361.613C361.895 265.34 362.165 265.43 362.364 265.589C362.563 265.749 362.675 265.965 362.675 266.191C362.675 266.416 362.563 266.633 362.364 266.792C362.165 266.952 361.895 267.041 361.613 267.041Z" fill="#F2F2F2"/>
<path d="M203.23 267.041H178.177C178.038 267.041 177.9 267.02 177.771 266.977C177.642 266.934 177.524 266.872 177.425 266.793C177.327 266.714 177.248 266.62 177.195 266.517C177.141 266.413 177.114 266.303 177.114 266.191C177.114 266.079 177.141 265.968 177.195 265.865C177.248 265.761 177.327 265.668 177.425 265.589C177.524 265.51 177.642 265.447 177.771 265.404C177.9 265.362 178.038 265.34 178.177 265.34H203.23C203.37 265.34 203.508 265.362 203.637 265.404C203.766 265.447 203.883 265.51 203.982 265.589C204.081 265.668 204.159 265.761 204.213 265.865C204.266 265.968 204.294 266.079 204.294 266.191C204.294 266.303 204.266 266.413 204.213 266.517C204.159 266.62 204.081 266.714 203.982 266.793C203.883 266.872 203.766 266.934 203.637 266.977C203.508 267.02 203.37 267.041 203.23 267.041Z" fill="#F2F2F2"/>
<path d="M244.737 151.538L210.767 178.415L244.737 205.292L252.38 199.168L226.69 178.585L252.592 157.832L244.737 151.538Z" fill="#00E75B"/>
<path d="M294.842 151.538L328.811 178.415L294.842 205.292L287.199 199.168L312.888 178.585L286.986 157.832L294.842 151.538Z" fill="#00E75B"/>
<path d="M101.935 70.2667C104.279 70.2667 106.179 68.7444 106.179 66.8667C106.179 64.9889 104.279 63.4667 101.935 63.4667C99.5915 63.4667 97.6917 64.9889 97.6917 66.8667C97.6917 68.7444 99.5915 70.2667 101.935 70.2667Z" fill="#00E75B"/>
<path d="M113.251 70.2667C115.595 70.2667 117.495 68.7444 117.495 66.8667C117.495 64.9889 115.595 63.4667 113.251 63.4667C110.908 63.4667 109.008 64.9889 109.008 66.8667C109.008 68.7444 110.908 70.2667 113.251 70.2667Z" fill="#00E75B"/>
<path d="M124.567 70.2667C126.911 70.2667 128.811 68.7444 128.811 66.8667C128.811 64.9889 126.911 63.4667 124.567 63.4667C122.224 63.4667 120.324 64.9889 120.324 66.8667C120.324 68.7444 122.224 70.2667 124.567 70.2667Z" fill="#00E75B"/>
<path opacity="0.1" d="M447.073 72.5333H92.5051V73.6666H447.073V72.5333Z" fill="black"/>
<path d="M531 229.482C531 253.574 513.125 261.986 491.075 261.986C469.025 261.986 451.15 253.574 451.15 229.482C451.15 205.391 491.075 174.743 491.075 174.743C491.075 174.743 531 205.391 531 229.482Z" fill="#F2F2F2"/>
<path d="M489.621 258.3L490.03 238.138L507.047 213.194L490.094 234.975L490.278 225.909L502.005 207.863L490.326 223.51L490.657 207.205L503.215 192.838L490.709 204.641L490.915 174.743L489.617 214.323L489.724 212.69L476.955 197.031L489.519 215.824L488.329 234.034L488.294 233.551L473.574 217.072L488.249 235.258L488.101 237.536L488.074 237.57L488.086 237.757L485.068 283.958H489.1L489.584 260.094L504.224 241.952L489.621 258.3Z" fill="#3F3D56"/>
<path d="M57.816 283.746C56.5911 284.292 55.2989 284.735 53.9601 285.069C51.5654 285.593 49.006 285.401 46.5872 285.848C45.5969 286.031 44.519 286.414 44.2041 287.189C43.9731 287.757 44.2244 288.37 44.4651 288.935C47.1378 295.214 48.7487 301.88 53.0111 307.567C54.8024 309.956 57.0257 312.119 59.6086 313.985C60.5776 314.685 61.6757 315.369 62.973 315.479C63.5708 315.53 64.1747 315.453 64.7238 315.257C65.2728 315.061 65.7476 314.752 66.1001 314.362C66.4526 313.972 66.6704 313.514 66.7315 313.035C66.7926 312.555 66.6949 312.072 66.4482 311.633C66.066 310.952 65.3556 310.425 64.8974 309.775C64.4006 308.948 64.1092 308.051 64.0395 307.135C63.6184 304.449 63.2127 301.643 64.374 299.101C65.1529 297.396 66.5816 295.943 67.7718 294.399C68.9621 292.854 69.951 291.085 69.6861 289.282C69.5054 288.052 68.7564 286.926 67.9651 285.862C67.1723 284.795 65.6054 281.93 64.0126 281.574C62.3592 281.204 59.258 283.154 57.816 283.746Z" fill="#2F2E41"/>
<path d="M101.399 305.433C101.424 306.041 101.318 306.647 101.086 307.226C100.588 308.281 99.3509 309.004 98.7119 310.009C97.8231 311.407 98.2259 313.097 98.8148 314.593C99.1839 315.531 99.6681 316.507 100.659 317.088C101.507 317.509 102.471 317.756 103.467 317.808C111.971 318.751 120.609 318.21 129.191 318.408C130.755 318.444 132.411 318.487 133.776 317.875C135.142 317.263 135.986 315.723 135.057 314.714C134.223 313.808 132.575 313.816 131.171 313.763C127.516 313.614 124.036 312.465 121.311 310.508C120.773 310.14 120.307 309.711 119.928 309.233C119.636 308.809 119.394 308.364 119.204 307.904C118.001 305.293 116.57 302.753 114.921 300.304C114.46 299.618 113.937 298.904 113.08 298.537C112.452 298.308 111.77 298.189 111.081 298.187C108.942 298.076 103.403 297.493 101.749 298.826C100.221 300.057 101.433 303.869 101.399 305.433Z" fill="#2F2E41"/>
<path d="M114.561 153.263C122.106 153.263 128.222 148.362 128.222 142.317C128.222 136.271 122.106 131.37 114.561 131.37C107.015 131.37 100.899 136.271 100.899 142.317C100.899 148.362 107.015 153.263 114.561 153.263Z" fill="#FBBEBE"/>
<path d="M102.224 151.355C101.411 153.098 100.033 154.735 98.0273 155.673L116.923 158.761C116.237 156.552 116.147 154.25 116.658 152.011C116.845 151.469 116.884 150.9 116.771 150.345C116.415 149.247 114.872 148.718 113.491 148.466C110.043 147.836 106.993 147.498 103.788 146.278C102.809 147.621 102.946 149.806 102.224 151.355Z" fill="#FBBEBE"/>
<path d="M97.8696 151.575C99.9023 150.838 102.117 150.479 104.347 150.526C106.578 150.572 108.766 151.023 110.748 151.844C113.17 152.867 115.176 154.411 117.147 155.934C118.963 157.338 120.901 158.946 121.03 160.966C121.092 161.944 120.711 162.901 120.519 163.868C120.173 165.869 120.612 167.907 121.777 169.699C122.941 171.49 124.772 172.947 127.016 173.868C128.517 175.872 128.827 178.299 128.85 180.636C128.937 189.489 125.451 198.452 127.94 207.078C128.524 209.104 129.43 211.065 129.935 213.104C130.589 215.745 130.557 218.461 130.899 221.14C131.27 224.04 132.079 226.894 133.31 229.638C132.488 230.686 130.776 231.088 129.235 231.003C127.694 230.918 126.253 230.382 124.877 229.818C118.218 227.088 112.119 223.488 105.222 221.167C100.659 219.632 95.7979 218.676 91.3713 216.903C86.9446 215.13 82.8278 212.316 81.4743 208.502C80.889 206.852 80.853 205.115 80.8211 203.4C80.6865 196.18 80.5615 188.88 82.5232 181.832C84.2531 175.616 87.5878 169.67 88.3153 163.328C88.5521 161.264 88.5571 159.054 89.9966 157.331C92.0312 154.897 96.4243 154.266 97.8696 151.575Z" fill="#2F2E41"/>
<path d="M106.791 142.471C107.596 141.63 109.148 141.515 110.434 141.764C111.72 142.013 112.906 142.544 114.205 142.746C114.5 142.813 114.81 142.83 115.114 142.796C115.418 142.761 115.709 142.677 115.97 142.547C116.424 142.189 116.696 141.708 116.732 141.198C117.187 139.029 117.293 136.823 117.048 134.632C116.98 134.325 117.006 134.009 117.123 133.711C117.445 133.091 118.426 132.943 119.227 132.744C120.549 132.386 121.684 131.685 122.454 130.752C123.223 129.82 123.583 128.708 123.476 127.593C123.456 127.059 123.176 126.552 122.695 126.18C122.141 125.819 121.366 125.796 120.651 125.792C116.978 125.768 113.306 125.769 109.633 125.794C108.274 125.803 106.847 125.83 105.668 126.373C104.797 126.774 104.149 127.42 103.367 127.926C101.328 129.245 98.5685 129.513 96.0868 130.189C94.8754 130.466 93.7753 130.991 92.8959 131.714C92.0707 132.469 91.6739 133.593 92.1922 134.507C92.4583 134.888 92.7555 135.254 93.0818 135.604C94.5457 137.479 93.5711 139.911 93.7897 142.116C94.0627 144.87 99.1483 149.336 102.597 149.988C108.164 151.04 104.948 144.278 106.791 142.471Z" fill="#2F2E41"/>
<path d="M99.0782 263.191C99.4296 265.202 99.8801 267.219 99.7597 269.247C99.5915 272.078 98.3173 274.805 98.0817 277.633C97.9058 279.745 98.3127 281.88 97.9466 283.976C97.7122 285.319 97.1659 286.613 96.8277 287.941C96.2921 290.105 96.3072 292.334 96.8721 294.493C97.4371 296.652 98.5402 298.698 100.115 300.508C100.347 300.817 100.676 301.073 101.07 301.249C101.447 301.361 101.851 301.403 102.252 301.374C106.228 301.309 110.194 301.02 114.12 300.51C114.407 300.5 114.679 300.404 114.882 300.24C114.97 300.132 115.027 300.009 115.047 299.88C115.775 296.882 114.115 293.876 113.693 290.84C113.242 287.599 114.213 284.351 115.177 281.183C115.613 279.62 116.159 278.077 116.811 276.563C117.277 275.544 117.84 274.553 118.243 273.517C118.815 271.89 119.163 270.217 119.281 268.53C119.562 265.866 119.71 263.197 119.727 260.521C119.822 257.986 119.559 255.45 118.942 252.962C118.056 249.812 116.243 246.887 114.446 243.997C113.485 244.182 112.582 244.525 111.797 245.006C109.481 246.208 107.062 247.278 104.559 248.21C102.878 248.835 99.5982 249.28 98.5309 250.584C97.4784 251.87 98.1574 254.494 98.2379 255.913C98.3759 258.348 98.656 260.774 99.0782 263.191Z" fill="#2F2E41"/>
<path opacity="0.1" d="M99.0782 263.191C99.4296 265.202 99.8801 267.219 99.7597 269.247C99.5915 272.078 98.3173 274.805 98.0817 277.633C97.9058 279.745 98.3127 281.88 97.9466 283.976C97.7122 285.319 97.1659 286.613 96.8277 287.941C96.2921 290.105 96.3072 292.334 96.8721 294.493C97.4371 296.652 98.5402 298.698 100.115 300.508C100.347 300.817 100.676 301.073 101.07 301.249C101.447 301.361 101.851 301.403 102.252 301.374C106.228 301.309 110.194 301.02 114.12 300.51C114.407 300.5 114.679 300.404 114.882 300.24C114.97 300.132 115.027 300.009 115.047 299.88C115.775 296.882 114.115 293.876 113.693 290.84C113.242 287.599 114.213 284.351 115.177 281.183C115.613 279.62 116.159 278.077 116.811 276.563C117.277 275.544 117.84 274.553 118.243 273.517C118.815 271.89 119.163 270.217 119.281 268.53C119.562 265.866 119.71 263.197 119.727 260.521C119.822 257.986 119.559 255.45 118.942 252.962C118.056 249.812 116.243 246.887 114.446 243.997C113.485 244.182 112.582 244.525 111.797 245.006C109.481 246.208 107.062 247.278 104.559 248.21C102.878 248.835 99.5982 249.28 98.5309 250.584C97.4784 251.87 98.1574 254.494 98.2379 255.913C98.3759 258.348 98.656 260.774 99.0782 263.191Z" fill="black"/>
<path d="M80.6081 220.251C78.7939 224.165 81.4606 228.394 83.7775 232.133C89.4855 241.346 93.4492 251.176 97.3918 260.964C97.6871 261.697 97.9822 262.497 97.653 263.221C97.3687 263.735 96.9071 264.174 96.3225 264.486C93.6041 266.14 90.1427 266.729 86.9044 267.595C83.775 268.431 80.7776 269.557 77.973 270.949C75.6264 272.114 73.4282 273.459 71.2344 274.802L64.2505 279.075C63.7984 279.32 63.4033 279.626 63.0832 279.981C62.4096 280.827 62.6855 281.933 63.0209 282.9C63.909 285.462 65.0524 287.962 66.4402 290.377C66.6686 290.906 67.1033 291.363 67.6803 291.679C68.7704 292.149 70.1037 291.526 70.9361 290.792C71.7685 290.059 72.4884 289.146 73.6618 288.831C74.8339 288.516 76.1238 288.897 77.3479 288.759C79.3275 288.537 80.6419 287.076 82.0689 285.954C87.8991 281.371 97.6331 281.703 104.047 277.651C104.974 276.987 105.955 276.372 106.985 275.813C108.069 275.299 109.298 275.017 110.423 274.563C113.845 273.183 115.996 270.329 117.148 267.402C118.3 264.475 118.629 261.385 119.457 258.388C119.885 256.839 120.448 255.306 120.639 253.727C120.761 252.258 120.721 250.783 120.519 249.319L118.205 226.383C118.017 224.515 117.828 222.645 117.462 220.795C110.589 220.992 103.721 221.213 96.8447 221.278C91.3727 221.33 85.8001 221.637 80.6081 220.251Z" fill="#2F2E41"/>
<path d="M78.0815 225.617C79.0139 226.818 81.2831 226.793 82.8457 226.135C84.4083 225.476 85.6223 224.37 87.1885 223.716C89.2933 222.839 91.7838 222.872 94.1555 222.926C97.9103 223.011 101.711 223.101 105.324 223.926C109.06 224.778 112.698 226.42 116.562 226.093C117.234 226.036 117.969 225.881 118.335 225.426C118.549 225.096 118.65 224.726 118.627 224.354L118.753 221.65C118.831 221.182 118.738 220.706 118.485 220.28C118.16 219.926 117.716 219.653 117.204 219.495C111.705 217.362 105.433 216.965 99.3272 216.797C96.2233 216.712 93.1181 216.677 90.0115 216.692C87.3754 216.705 84.2107 216.399 81.6477 216.963C78.2081 217.721 76.3365 223.368 78.0815 225.617Z" fill="#2F2E41"/>
<path d="M112.613 154.785C105.407 154.734 98.8774 150.923 91.6725 150.831C90.802 150.782 89.9299 150.903 89.1299 151.182C88.1259 151.587 87.4659 152.371 86.7032 153.033C84.5728 154.881 81.4878 155.868 79.2992 157.672C77.2471 159.364 76.1058 161.884 76.916 164.152C77.7262 166.42 80.784 168.16 83.6486 167.614C84.8027 164.621 87.1847 162.028 90.4084 160.256C92.0857 159.394 93.8535 158.65 95.6917 158.033C98.9299 156.858 102.551 155.66 105.932 156.541C107.178 156.918 108.354 157.432 109.425 158.067L115.061 161.101C114.405 159.026 113.814 156.698 112.613 154.785Z" fill="#00E75B"/>
<path d="M82.8186 165.608C81.8618 166.564 83.2401 167.95 83.0292 169.164C82.889 169.971 82.0606 170.586 81.7156 171.353C81.3582 172.146 81.5477 173.025 81.4122 173.861C81.2762 174.47 81.075 175.068 80.811 175.648C80.204 177.383 79.7803 179.155 79.5444 180.947L78.2831 188.493C78.0643 189.629 77.9311 190.774 77.8843 191.923C77.9478 192.781 77.8762 193.642 77.6711 194.486C77.3918 195.311 76.7734 196.033 76.3574 196.819C75.9414 197.606 75.7486 198.558 76.3106 199.284C74.4286 200.54 73.869 203.007 75.1849 204.662C75.4354 204.92 75.6314 205.209 75.7649 205.518C75.8377 205.949 75.7488 206.388 75.5095 206.779L74.2342 209.502C73.9078 210.199 73.8046 211.26 74.7121 211.419C73.9604 212.044 73.3747 212.786 72.9905 213.597C72.8041 214.005 72.7484 214.444 72.8285 214.873C72.9087 215.303 73.122 215.709 73.449 216.055C73.7659 216.278 74.0357 216.54 74.2479 216.832C74.3727 217.238 74.3405 217.666 74.1556 218.057C73.9649 218.652 73.9281 219.271 74.0476 219.878C74.167 220.484 74.4401 221.065 74.8501 221.583C75.2749 222.095 75.8765 222.496 76.5814 222.738C77.2864 222.98 78.064 223.053 78.8194 222.946C81.3704 222.485 83.6628 221.758 86.2349 222.136C91.7732 222.95 97.3292 223.768 102.693 225.14C108.815 226.706 114.743 229.002 121.141 229.484C121.562 229.553 122 229.499 122.375 229.331C122.701 229.083 122.904 228.749 122.945 228.391C123.604 225.915 124.264 223.438 124.923 220.962C125.72 218.217 126.327 215.439 126.741 212.64C126.966 210.834 127.03 209.018 127.094 207.203L127.603 192.761C127.842 190.632 127.488 188.487 126.566 186.482L123.635 178.984C121.962 174.705 118.124 170.91 116.757 166.562C115.893 163.81 115.254 160.856 112.935 158.711C109.628 155.653 103.908 155.177 98.901 155.703C96.6391 155.941 94.3578 156.351 92.4012 157.291C90.1389 158.377 88.4722 160.089 86.8598 161.762C85.5309 163.141 84.1783 164.249 82.8186 165.608Z" fill="#00E75B"/>
<path d="M94.5094 208.089C94.9219 209.514 95.7883 210.828 96.3185 212.228C97.207 214.574 97.1316 217.1 98.0183 219.446C98.3905 220.43 98.9298 221.376 99.1969 222.382C99.8197 224.728 98.9104 227.156 97.7808 229.377C96.6512 231.598 95.2755 233.789 94.9088 236.169C94.6505 237.846 95.0215 239.739 96.6345 240.827C98.3092 241.957 100.743 241.881 102.924 241.73C103.707 241.713 104.48 241.584 105.206 241.35C106.874 240.717 107.577 239.136 107.967 237.691C109.274 232.848 108.9 227.828 108.521 222.883L107.528 209.95C107.336 207.46 107.132 204.919 106.174 202.528C105.826 201.659 105.218 199.901 104.227 199.346C103.245 198.796 100.441 198.771 99.2251 198.726C93.521 198.511 93.5849 204.89 94.5094 208.089Z" fill="#FBBEBE"/>
<path d="M100.829 160.338C99.6643 159.849 98.1966 160.06 97.0706 160.604C95.9833 161.2 95.0311 161.941 94.2548 162.794C91.7375 165.256 89.0727 168.081 89.4461 171.25C89.5861 172.438 90.1538 173.562 90.5387 174.715C92.2264 179.769 90.3601 185.115 90.5743 190.345C90.698 193.366 91.5187 196.339 92.3359 199.29C92.5027 199.892 92.7699 200.59 93.4972 200.793C94.0435 200.945 94.6336 200.749 95.1744 200.584C97.1888 199.988 99.3529 199.789 101.484 200.004C103.614 200.219 105.649 200.842 107.416 201.821C108.767 201.243 108.261 199.417 107.958 198.214C107.058 194.642 108.279 190.956 109.763 187.51C111.246 184.064 113.021 180.623 113.267 176.983C113.545 172.86 111.839 168.834 110.155 164.931C109.788 164.079 109.386 163.186 108.534 162.597C107.804 162.162 106.968 161.856 106.081 161.699C104.292 161.276 102.481 161.031 100.829 160.338Z" fill="#2F2E41"/>
</g>
<defs>
<clipPath id="clip0">
<rect width="531" height="323" fill="white"/>
</clipPath>
</defs>
</svg>
