<svg width="383" height="52" viewBox="0 0 383 52" fill="none" xmlns="http://www.w3.org/2000/svg">
<path d="M0 34.9815H13.1461C13.1461 38.4053 15.7072 40.0722 18.6013 40.0722C21.27 40.0722 23.8208 38.6018 23.8208 35.9821C23.8208 32.975 20.2199 32.1044 15.8174 30.9976C9.13034 29.2751 0.596741 27.1518 0.596741 16.2406C0.596741 6.7998 7.2889 1.39331 18.1941 1.39331C29.2837 1.39331 35.6429 7.29347 35.6429 17.0528H22.863C22.863 14.0217 20.6835 12.5991 18.043 12.5991C15.7713 12.5991 13.5918 13.6183 13.5918 15.8557C13.5918 18.5789 17.0774 19.4786 21.4339 20.612C28.2413 22.4327 37.1437 24.7896 37.1437 35.7406C37.1437 46.2112 29.381 51.6442 18.6397 51.6442C7.31707 51.631 0 45.4309 0 34.9815Z" fill="#F2F2F2"/>
<path d="M78.4825 28.1924V50.4607H66.1892V29.6707C66.1892 25.4082 64.7421 23.2318 61.5356 23.2318C57.8169 23.2318 55.4991 25.9682 55.4991 30.7138V50.4607H43.2135V0.130127H55.5068V15.909C58.2009 13.6424 61.5615 12.3979 65.0315 12.3817C73.2168 12.387 78.4825 18.6083 78.4825 28.1924Z" fill="#F2F2F2"/>
<path d="M228.205 51.6708C214.119 51.6708 203.618 40.8711 203.618 26.5334C203.618 12.1161 214.119 1.31903 228.205 1.31903C240.326 1.31903 249.718 9.61058 251.595 21.7559H238.685C237.097 16.8405 233.101 13.6502 228.233 13.6502C221.684 13.6502 216.879 19.1071 216.879 26.5281C216.879 33.9491 221.684 39.3025 228.233 39.3025C233.355 39.3025 237.399 35.8362 238.695 30.5093H251.728C249.971 43.1138 240.526 51.6681 228.205 51.6681V51.6708Z" fill="#00E75B"/>
<path d="M255.145 31.9717C255.145 20.5085 263.517 12.27 275.152 12.27C286.746 12.27 295.157 20.4979 295.157 31.9717C295.157 43.3846 286.746 51.6708 275.152 51.6708C263.517 51.6708 255.145 43.3952 255.145 31.9717ZM275.152 40.2288C279.631 40.2288 282.835 36.8607 282.835 31.9717C282.835 27.0828 279.621 23.712 275.152 23.712C270.683 23.712 267.469 27.0828 267.469 31.9717C267.469 36.8607 270.683 40.2288 275.152 40.2288Z" fill="#00E75B"/>
<path d="M338.522 0.130127V50.4607H329.427L328.269 47.7136C325.257 50.3303 321.443 51.7477 317.513 51.7108C306.564 51.7108 298.766 43.4617 298.766 31.9719C298.766 20.4821 306.564 12.2702 317.513 12.2702C320.642 12.245 323.715 13.1345 326.379 14.8367V0.130127H338.522ZM327.137 31.9799C327.137 27.1493 323.754 23.5158 319.149 23.5158C314.544 23.5158 311.164 27.1493 311.164 31.9799C311.164 36.8104 314.547 40.4413 319.149 40.4413C323.752 40.4413 327.137 36.7998 327.137 31.9719V31.9799Z" fill="#00E75B"/>
<path d="M383 31.6214C382.994 32.7499 382.908 33.8765 382.744 34.9922H356.252C357.056 39.2388 359.656 41.4285 363.536 41.4285C366.407 41.4285 368.806 40.1253 369.987 37.9595H382.219C379.707 46.3997 372.487 51.6708 363.523 51.6708C352.39 51.6708 344.143 43.2386 344.143 31.9426C344.143 20.6067 352.323 12.27 363.523 12.27C375.025 12.27 382.987 20.7633 382.987 31.6214H383ZM356.47 27.9401H370.894C369.815 24.2455 367.244 22.2496 363.536 22.2496C359.953 22.2496 357.461 24.2667 356.47 27.9401Z" fill="#00E75B"/>
<path d="M174.386 36.107C174.602 37.1332 174.868 38.1475 175.182 39.146C176.092 42.02 177.392 44.7456 179.042 47.2411C172.8 43.3394 167.165 38.4803 162.328 32.8291V22.8867C166.676 15.9482 172.454 10.0944 179.247 5.74623C178.278 6.83177 176.396 9.26828 175.943 12.8275C175.811 13.8759 175.811 14.9375 175.943 15.9859C182.704 8.15073 191.568 2.58466 201.4 0C197.815 4.36076 194.826 8.3234 192.436 11.6437C186.218 20.3361 185.493 22.7274 185.58 25.0657C185.693 28.0835 187.135 30.3342 191.537 35.5231C196.364 41.2124 201.495 46.6175 206.904 51.7134C194.97 49.4124 183.782 44.0477 174.365 36.1096L174.386 36.107Z" fill="#F2F2F2"/>
<path d="M160.684 14.1732C156.889 15.87 153.386 18.1963 150.314 21.0607C148.142 23.0964 146.216 24.8986 144.73 27.9615C143.035 31.4384 142.899 34.4906 142.738 39.3955C142.6 43.6167 142.89 47.8412 143.601 52C141.245 51.0711 136.576 48.815 133.1 43.804C127.23 35.34 129.295 25.5435 129.976 22.3055C130.555 19.5611 132.155 12.448 138.353 6.87428C140.917 4.58115 143.902 2.8479 147.128 1.77832C146.072 2.90102 143.066 6.40449 142.871 11.5588C142.818 13.0711 143.006 14.5821 143.427 16.0311C145.318 15.0638 147.321 14.3503 149.387 13.9078C153.124 13.1144 156.985 13.2052 160.684 14.1732Z" fill="#F2F2F2"/>
<path d="M114.363 23.606C110.965 23.7758 107.917 24.6676 105.63 26.0186L106.493 26.9157H104.303C103.957 27.185 103.63 27.4805 103.325 27.7995L104.846 29.3734H102.147C101.899 29.8132 101.711 30.2866 101.589 30.7801L103.666 32.0037L101.589 33.2272C101.712 33.7167 101.897 34.1871 102.139 34.626H104.846L103.31 36.2185C103.631 36.5465 103.973 36.8515 104.334 37.1315H106.639L105.732 38.0764C108.002 39.3875 111.008 40.2421 114.34 40.4067C113.111 39.8507 111.969 39.1072 110.952 38.2011H108.522L109.764 36.9138C109.471 36.5502 109.207 36.1623 108.975 35.754H106.749L108.286 34.1615C108.188 33.8503 108.114 33.5317 108.063 33.2087L106.014 32.0143L108.063 30.8146C108.099 30.5917 108.148 30.3687 108.201 30.1511L106.752 28.6435H108.778C109.023 28.1575 109.313 27.6971 109.643 27.2687L108.522 26.1088H110.67C111.76 25.0691 113.008 24.2234 114.363 23.606Z" fill="#F2F2F2"/>
<path d="M103.31 27.8126C103.31 27.8126 103.31 27.7967 103.324 27.7967L103.31 27.8126Z" fill="#F2F2F2"/>
<path d="M114.719 13.4408L113.464 16.3019C110.393 13.6891 106.533 12.2797 102.559 12.3207C91.6489 12.3207 83.8478 20.4716 83.8478 31.9242C83.8478 43.4166 91.6489 51.6657 102.559 51.6657C106.469 51.7038 110.27 50.3363 113.316 47.796L114.366 50.413H123.888V13.4408H114.719ZM116.54 41.5508C115.933 41.6039 115.208 41.6516 114.379 41.6729C109.09 41.8148 103.85 40.584 99.1376 38.0924C96.1951 36.5129 93.5149 34.4566 91.1981 32.0012C93.5139 29.541 96.1942 27.4802 99.1376 25.8966C103.852 23.4089 109.091 22.1809 114.379 22.3242C115.208 22.3242 115.933 22.3852 116.54 22.4383V41.5508Z" fill="#F2F2F2"/>
</svg>
